<?xml version="1.0" encoding="UTF-8"?>
<svg version="1.1" xmlns="http://www.w3.org/2000/svg" width="512" height="512">
<path d="M0 0 C0.92320038 0.00215515 1.84640076 0.0043103 2.7975769 0.00653076 C16.84510478 0.05906873 30.56720523 0.50878372 44.375 3.3125 C45.83800537 3.60253906 45.83800537 3.60253906 47.33056641 3.8984375 C89.5561911 12.53140952 129.50688243 31.53522623 161.04296875 61.1328125 C163.06200592 63.01995277 165.12693267 64.79547502 167.25 66.5625 C206.07414713 100.56328058 230.8051121 152.88273105 238.375 203.3125 C238.55232666 204.455979 238.72965332 205.59945801 238.91235352 206.77758789 C240.47472073 217.82401777 240.73426149 228.72938743 240.6875 239.875 C240.68534485 240.80069794 240.6831897 241.72639587 240.68096924 242.68014526 C240.62848753 256.74296666 240.19500854 270.49116432 237.375 284.3125 C237.07698486 285.79145752 237.07698486 285.79145752 236.77294922 287.30029297 C229.07585926 324.29821527 213.94240624 358.65900534 190.375 388.3125 C189.67117188 389.20839844 188.96734375 390.10429687 188.2421875 391.02734375 C166.49254596 418.19490675 140.02808379 439.01066642 109.375 455.3125 C108.44373291 455.81281738 108.44373291 455.81281738 107.49365234 456.32324219 C74.8124714 473.59623027 37.35681735 480.77560878 0.6875 480.625 C-0.69822205 480.62226578 -0.69822205 480.62226578 -2.11193848 480.61947632 C-15.82977635 480.57394399 -29.14839132 480.06690328 -42.625 477.3125 C-43.47690918 477.15152832 -44.32881836 476.99055664 -45.20654297 476.82470703 C-88.99093781 468.4722139 -129.01395816 448.64974443 -161.625 418.3125 C-162.9959163 417.12028787 -164.37076624 415.93258001 -165.75 414.75 C-173.54691563 407.92183942 -180.21925423 400.4483848 -186.625 392.3125 C-187.12725098 391.68134277 -187.62950195 391.05018555 -188.14697266 390.39990234 C-195.78330791 380.77807396 -202.6872176 371.06801154 -208.625 360.3125 C-209.06054199 359.53422852 -209.49608398 358.75595703 -209.94482422 357.95410156 C-240.5055373 302.99402322 -248.85797822 237.03350672 -232.08203125 176.24609375 C-218.21567823 128.49702365 -191.18372946 84.09148623 -151.625 53.3125 C-150.99964355 52.8160498 -150.37428711 52.31959961 -149.72998047 51.80810547 C-140.09964627 44.16312292 -130.3836999 37.2669056 -119.625 31.3125 C-118.86268066 30.88227539 -118.10036133 30.45205078 -117.31494141 30.00878906 C-95.52969478 17.78197668 -72.08462351 9.1700919 -47.625 4.125 C-46.87895508 3.96990967 -46.13291016 3.81481934 -45.36425781 3.6550293 C-30.2747702 0.71811693 -15.33595828 -0.06464961 0 0 Z " fill="#46CB6B" transform="translate(255.625,15.6875)"/>
<path d="M0 0 C5.71488411 4.74973575 10.97191557 9.84174258 16.20825195 15.1105957 C17.58215686 16.4867419 18.95606188 17.86288797 20.32997167 19.23902929 C21.79327282 20.70568279 23.25531938 22.17357629 24.71700478 23.64183998 C27.76918691 26.70762054 30.82524804 29.7695149 33.88188171 32.83085632 C40.361734 39.32176787 46.83732236 45.81692565 53.3125 52.3125 C60.32137882 59.34341393 67.33099858 66.37357999 74.34548348 73.39890164 C77.38542196 76.44382672 80.42290505 79.49117403 83.45854056 82.5403887 C84.8890094 83.97650933 86.32060831 85.41149161 87.75273132 86.84596252 C89.50055669 88.59666736 91.2465706 90.34918317 92.99047852 92.10379028 C94.14058159 93.2539991 94.14058159 93.2539991 95.31391907 94.42744446 C96.31517555 95.43203186 96.31517555 95.43203186 97.33665943 96.45691395 C98.93498963 98.08434939 98.93498963 98.08434939 101 99 C100.43868498 121.48066654 95.93831434 142.64830455 89 164 C88.64083496 165.10649902 88.64083496 165.10649902 88.27441406 166.23535156 C80.09039516 190.83492073 67.09636869 213.74687676 51 234 C50.29617188 234.89589844 49.59234375 235.79179687 48.8671875 236.71484375 C27.11754596 263.88240675 0.65308379 284.69816642 -30 301 C-30.93126709 301.50031738 -30.93126709 301.50031738 -31.88134766 302.01074219 C-57.91813398 315.77196767 -88.69948209 323.90263387 -118 326 C-118.98806641 326.15927979 -118.98806641 326.15927979 -119.99609375 326.32177734 C-122.21855167 326.56332567 -123.82135861 326.51826233 -126 326 C-127.45198154 324.66725063 -127.45198154 324.66725063 -128.91810608 322.80210876 C-132.11228738 318.96754636 -135.47827495 315.40593139 -139.00486755 311.88160706 C-139.56997327 311.31599182 -140.13507899 310.75037658 -140.71730912 310.16762149 C-142.5692412 308.31751358 -144.42413163 306.47040173 -146.27905273 304.62329102 C-147.62019292 303.2840726 -148.96110369 301.9446244 -150.30180359 300.60496521 C-153.17535364 297.73456231 -156.05044621 294.86571684 -158.92675591 291.9980793 C-163.47094257 287.46745709 -168.01127465 282.93298516 -172.55104065 278.39793396 C-182.1768964 268.783152 -191.80699342 259.17262317 -201.4375 249.5625 C-211.85917524 239.16284254 -222.2801149 228.76245415 -232.69621044 218.35720772 C-237.21412087 213.84429274 -241.73446118 209.33382986 -246.25664794 204.8252002 C-249.0584698 202.03080488 -251.85824775 199.23436878 -254.65745735 196.43735695 C-255.96114164 195.13555409 -257.2656946 193.83462052 -258.57115173 192.53459549 C-260.34439344 190.76850448 -262.11458789 188.99941603 -263.88401794 187.22950745 C-264.67060914 186.44830869 -264.67060914 186.44830869 -265.47309107 185.65132815 C-269 182.11409337 -269 182.11409337 -269 181 C-267.83563353 180.99761165 -266.67126705 180.99522329 -265.47161674 180.99276257 C-237.83136111 180.93540164 -210.19118071 180.86267034 -182.55101662 180.77101372 C-179.1489203 180.75974557 -175.74682357 180.74860711 -172.34472656 180.73754883 C-171.66743087 180.73534514 -170.99013518 180.73314146 -170.29231538 180.730871 C-159.32591858 180.69549947 -148.35952185 180.67063453 -137.39308916 180.64965298 C-126.14035246 180.62788977 -114.88768964 180.59461186 -103.63501179 180.55129844 C-97.31461361 180.52733542 -90.99429742 180.50862679 -84.67385483 180.50238609 C-78.72639864 180.49634924 -72.77915234 180.47639981 -66.83177376 180.44572449 C-64.6476811 180.43692185 -62.46356105 180.43322627 -60.27945137 180.43499184 C-57.29916558 180.43664052 -54.31952266 180.41997944 -51.33932495 180.39872742 C-50.47355674 180.40357499 -49.60778852 180.40842257 -48.71578491 180.41341704 C-43.73336849 180.35471794 -40.33094198 179.7328457 -36 177 C-32.11455935 172.84659792 -31.87626347 168.8379295 -31.85282898 163.32034302 C-31.84567368 162.16236206 -31.83851837 161.0043811 -31.83114624 159.81130981 C-31.82845734 158.54471527 -31.82576843 157.27812073 -31.82299805 155.97314453 C-31.81673002 154.62269924 -31.81008292 153.27225567 -31.80308533 151.92181396 C-31.78208812 147.49215893 -31.77168909 143.06250371 -31.76171875 138.6328125 C-31.75767 137.10620989 -31.75355304 135.57960746 -31.74936867 134.05300522 C-31.73032892 126.88224976 -31.71609364 119.71150455 -31.7077567 112.54072869 C-31.69797932 104.2682541 -31.67164185 95.99604673 -31.63125581 87.72366631 C-31.60109178 81.32524105 -31.58628768 74.92689242 -31.58297569 68.52839744 C-31.58062612 64.70852976 -31.57167772 60.88894796 -31.54651451 57.06915665 C-31.52322249 53.47558902 -31.51900473 49.88249533 -31.52927589 46.28887177 C-31.53000668 44.34578899 -31.51092485 42.40273022 -31.49121094 40.45974731 C-31.52016536 35.6076666 -31.61068288 31.91141435 -33.52937317 27.41964722 C-38.19626832 22.84905011 -43.34408968 20.55332584 -49.94959712 20.51344681 C-50.65738913 20.52939266 -51.36518114 20.54533852 -52.09442139 20.56176758 C-52.86866494 20.56273312 -53.6429085 20.56369865 -54.44061399 20.56469345 C-57.0139543 20.57244262 -59.58609095 20.60859522 -62.15917969 20.64453125 C-64.01277668 20.65545178 -65.86638599 20.66442893 -67.72000122 20.6716156 C-71.70224782 20.69011761 -75.68417987 20.72018727 -79.66628265 20.75866699 C-85.97115036 20.81735514 -92.27576349 20.83685837 -98.58087158 20.84863281 C-116.50677904 20.88695891 -134.43211691 20.95769441 -152.35742188 21.11279297 C-162.26509435 21.19819034 -172.17198915 21.24050711 -182.08003926 21.23541355 C-187.31711023 21.23465771 -192.55196321 21.25627981 -197.78853607 21.33169556 C-202.71746562 21.40268018 -207.64344414 21.41750475 -212.57278061 21.3905201 C-214.37393541 21.39058879 -216.17523119 21.4109828 -217.97587204 21.4540081 C-226.48704697 21.64687052 -233.06285082 21.69189063 -239.55295873 15.65874863 C-246 8.93685083 -246 8.93685083 -246 7 C-219.31367792 6.90650675 -192.62738044 6.83599624 -165.94092751 6.79275131 C-153.54959255 6.77213712 -141.15835943 6.74403822 -128.76708984 6.69824219 C-117.96528376 6.65833962 -107.16355145 6.63255888 -96.36167371 6.62364602 C-90.64357646 6.61843712 -84.92569022 6.60621778 -79.20766068 6.57707977 C-73.82162019 6.54985682 -68.43587692 6.54156899 -63.04977417 6.54756927 C-61.07696287 6.54647212 -59.10414126 6.53855945 -57.13138962 6.5231781 C-45.6254488 6.43789519 -36.65325592 6.64979421 -26.75 13.125 C-21.14830778 18.98131459 -16.87128559 25.7608831 -16.87974548 33.99235535 C-16.87768349 35.53833153 -16.87768349 35.53833153 -16.87557983 37.11553955 C-16.87917511 38.24554382 -16.88277039 39.3755481 -16.88647461 40.53979492 C-16.88632858 41.73016861 -16.88618256 42.9205423 -16.8860321 44.14698792 C-16.88660978 47.41118607 -16.89162832 50.67534147 -16.89860606 53.93953109 C-16.90485336 57.35082422 -16.90544449 60.76211817 -16.90663147 64.17341614 C-16.90974072 70.63319678 -16.91794864 77.09296052 -16.92798096 83.55273372 C-16.93915469 90.90695364 -16.94465573 98.26117437 -16.94967639 105.61540067 C-16.96013158 120.74360987 -16.97772318 135.87180325 -17 151 C-15.559708 150.71311027 -14.12123861 150.41706083 -12.68359375 150.1171875 C-11.88236084 149.95331543 -11.08112793 149.78944336 -10.25561523 149.62060547 C-6.4455775 148.5723193 -3.97483533 146.55078155 -1.88849831 143.23180771 C-0.77229936 140.42804162 -0.73763912 138.18439574 -0.7215271 135.16607666 C-0.71036362 133.97418228 -0.69920013 132.7822879 -0.68769836 131.55427551 C-0.68445808 129.59816597 -0.68445808 129.59816597 -0.68115234 127.60253906 C-0.67185229 126.21279823 -0.6616835 124.82306298 -0.65071106 123.43333435 C-0.62340562 119.66304214 -0.60826008 115.89278731 -0.59528303 112.12242222 C-0.57965486 108.1812416 -0.55286364 104.24013734 -0.5272522 100.29901123 C-0.48045884 92.83702884 -0.44371744 85.3750321 -0.41057932 77.91297793 C-0.37236187 69.41723183 -0.32295072 60.92156239 -0.27259517 52.42588091 C-0.16926703 34.95064273 -0.08000951 17.47536018 0 0 Z " fill="#179C5F" transform="translate(395,170)"/>
<path d="M0 0 C0.7915114 -0.00583219 1.5830228 -0.01166439 2.3985194 -0.01767331 C3.26212963 -0.01389399 4.12573986 -0.01011467 5.0155201 -0.00622082 C5.93758723 -0.01004636 6.85965437 -0.01387191 7.80966294 -0.01781338 C10.90650732 -0.0281512 14.00316657 -0.02414972 17.10002327 -0.02018261 C19.31745259 -0.02452867 21.53488041 -0.02971146 23.75230598 -0.03567028 C29.7812222 -0.04908343 35.81007581 -0.04963633 41.83900404 -0.04710698 C46.86894873 -0.04603877 51.89888067 -0.05091684 56.92882264 -0.0557124 C69.47299922 -0.067451 82.01714537 -0.06657794 94.56132211 -0.06015559 C105.45314721 -0.05498735 116.34488286 -0.06623892 127.23669027 -0.08525381 C138.42171307 -0.1046308 149.60670327 -0.11259694 160.79174531 -0.10913056 C167.0707436 -0.10731569 173.34965998 -0.10997422 179.62864494 -0.1238451 C185.53343866 -0.13640068 191.43805311 -0.13450074 197.34284401 -0.12143421 C199.5108299 -0.11906388 201.67882832 -0.1218194 203.84679985 -0.13005733 C206.80494184 -0.14048775 209.76247821 -0.13245366 212.72059822 -0.11974621 C213.57974701 -0.12712049 214.4388958 -0.13449478 215.32407939 -0.14209253 C220.29059537 -0.09716946 223.69033416 0.50744223 227.9950428 3.25447559 C231.88175141 7.56136892 233.11854256 9.95311733 233.1354847 15.68689442 C233.14119484 16.84068089 233.14690498 17.99446735 233.15278816 19.18321705 C233.15446495 21.09153812 233.15446495 21.09153812 233.15617561 23.03841114 C233.16080319 24.38693853 233.16582777 25.7354646 233.17122078 27.08398914 C233.18435601 30.75364467 233.19079237 34.42328189 233.19523144 38.09295726 C233.19816146 40.38623314 233.20226622 42.67950401 233.20673561 44.97277737 C233.22041594 52.14941818 233.23007894 59.32604755 233.2339375 66.50270051 C233.23841423 74.78362663 233.25594185 83.06438735 233.2849381 91.34526318 C233.30657499 97.74706188 233.31664292 104.14881412 233.31797862 110.55064899 C233.31902558 114.37331675 233.3249095 118.19582915 233.34279823 122.01845837 C233.35931286 125.61769107 233.36141814 129.21665223 233.35265923 132.81590939 C233.3515252 134.75999015 233.36521797 136.70406204 233.3794117 138.64809132 C233.34942701 144.93606502 233.18983625 149.76221979 229.9950428 155.25447559 C224.67375842 160.30969576 220.13973037 160.4031455 213.09482002 160.40164661 C212.17360731 160.4053233 211.2523946 160.40899999 210.30326635 160.41278809 C207.20336789 160.42383843 204.10350294 160.42767104 201.00358772 160.43147755 C198.78630656 160.43774109 196.56902646 160.44438779 194.35174751 160.45139027 C188.31866051 160.46880812 182.28558143 160.47935383 176.2524755 160.4875958 C172.48528515 160.49274349 168.71809727 160.49881927 164.95090866 160.50510693 C154.52037539 160.52197609 144.0898437 160.5366117 133.6592989 160.54385567 C130.95309828 160.54576554 128.24689768 160.54768588 125.5406971 160.54964161 C124.53178424 160.55036722 124.53178424 160.55036722 123.50248931 160.55110749 C112.60411728 160.55940969 101.70585495 160.58475071 90.80753084 160.61722229 C79.61802843 160.65028965 68.42856574 160.66797126 57.23901063 160.67149991 C50.95660251 160.6738538 44.67436783 160.68285871 38.39200592 160.70796108 C32.48309743 160.73118989 26.57447723 160.73549584 20.66553497 160.7251997 C18.49592825 160.72470299 16.32630758 160.73106292 14.156744 160.74475574 C11.19622035 160.76239633 8.23674012 160.75540685 5.27621651 160.74222279 C4.4163856 160.75319203 3.55655469 160.76416128 2.6706683 160.77546293 C-2.70819002 160.71757646 -5.71910353 159.79485392 -10.0049572 156.25447559 C-15.43054418 150.67881648 -14.58245233 144.05402839 -14.55427361 136.74104786 C-14.56297558 135.36236438 -14.57334446 133.98369056 -14.58524895 132.60503101 C-14.61196863 128.87145474 -14.61319336 125.13828411 -14.60812235 121.4046309 C-14.6059789 118.2833844 -14.6157598 115.16221931 -14.62533319 112.04099029 C-14.64750235 104.67548497 -14.64841019 97.31018366 -14.63630486 89.94466114 C-14.62422333 82.35540852 -14.64885564 74.76689729 -14.69144499 67.17777115 C-14.72671148 60.65270605 -14.73867447 54.12787659 -14.73216951 47.60271972 C-14.72854903 43.70954779 -14.73376221 39.81690486 -14.76159859 35.92381954 C-14.78680425 32.26184708 -14.78282504 28.60102795 -14.75677681 24.93907261 C-14.74981264 22.96162104 -14.77236696 20.98413385 -14.79591179 19.00681019 C-14.71894849 12.49283138 -14.40850808 8.2245363 -9.68190384 3.50140762 C-6.53688136 1.16285423 -3.93598304 0.00500412 0 0 Z " fill="#FCFEFD" transform="translate(131.00495719909668,190.7455244064331)"/>
<path d="M0 0 C0.7915114 -0.00583219 1.5830228 -0.01166439 2.3985194 -0.01767331 C3.26212963 -0.01389399 4.12573986 -0.01011467 5.0155201 -0.00622082 C5.93758723 -0.01004636 6.85965437 -0.01387191 7.80966294 -0.01781338 C10.90650732 -0.0281512 14.00316657 -0.02414972 17.10002327 -0.02018261 C19.31745259 -0.02452867 21.53488041 -0.02971146 23.75230598 -0.03567028 C29.7812222 -0.04908343 35.81007581 -0.04963633 41.83900404 -0.04710698 C46.86894873 -0.04603877 51.89888067 -0.05091684 56.92882264 -0.0557124 C69.47299922 -0.067451 82.01714537 -0.06657794 94.56132211 -0.06015559 C105.45314721 -0.05498735 116.34488286 -0.06623892 127.23669027 -0.08525381 C138.42171307 -0.1046308 149.60670327 -0.11259694 160.79174531 -0.10913056 C167.0707436 -0.10731569 173.34965998 -0.10997422 179.62864494 -0.1238451 C185.53343866 -0.13640068 191.43805311 -0.13450074 197.34284401 -0.12143421 C199.5108299 -0.11906388 201.67882832 -0.1218194 203.84679985 -0.13005733 C206.80494184 -0.14048775 209.76247821 -0.13245366 212.72059822 -0.11974621 C213.57974701 -0.12712049 214.4388958 -0.13449478 215.32407939 -0.14209253 C220.29059537 -0.09716946 223.69033416 0.50744223 227.9950428 3.25447559 C231.88175141 7.56136892 233.11854256 9.95311733 233.1354847 15.68689442 C233.14119484 16.84068089 233.14690498 17.99446735 233.15278816 19.18321705 C233.15446495 21.09153812 233.15446495 21.09153812 233.15617561 23.03841114 C233.16080319 24.38693853 233.16582777 25.7354646 233.17122078 27.08398914 C233.18435601 30.75364467 233.19079237 34.42328189 233.19523144 38.09295726 C233.19816146 40.38623314 233.20226622 42.67950401 233.20673561 44.97277737 C233.22041594 52.14941818 233.23007894 59.32604755 233.2339375 66.50270051 C233.23841423 74.78362663 233.25594185 83.06438735 233.2849381 91.34526318 C233.30657499 97.74706188 233.31664292 104.14881412 233.31797862 110.55064899 C233.31902558 114.37331675 233.3249095 118.19582915 233.34279823 122.01845837 C233.35931286 125.61769107 233.36141814 129.21665223 233.35265923 132.81590939 C233.3515252 134.75999015 233.36521797 136.70406204 233.3794117 138.64809132 C233.34942701 144.93606502 233.18983625 149.76221979 229.9950428 155.25447559 C224.67375842 160.30969576 220.13973037 160.4031455 213.09482002 160.40164661 C212.17360731 160.4053233 211.2523946 160.40899999 210.30326635 160.41278809 C207.20336789 160.42383843 204.10350294 160.42767104 201.00358772 160.43147755 C198.78630656 160.43774109 196.56902646 160.44438779 194.35174751 160.45139027 C188.31866051 160.46880812 182.28558143 160.47935383 176.2524755 160.4875958 C172.48528515 160.49274349 168.71809727 160.49881927 164.95090866 160.50510693 C154.52037539 160.52197609 144.0898437 160.5366117 133.6592989 160.54385567 C130.95309828 160.54576554 128.24689768 160.54768588 125.5406971 160.54964161 C124.53178424 160.55036722 124.53178424 160.55036722 123.50248931 160.55110749 C112.60411728 160.55940969 101.70585495 160.58475071 90.80753084 160.61722229 C79.61802843 160.65028965 68.42856574 160.66797126 57.23901063 160.67149991 C50.95660251 160.6738538 44.67436783 160.68285871 38.39200592 160.70796108 C32.48309743 160.73118989 26.57447723 160.73549584 20.66553497 160.7251997 C18.49592825 160.72470299 16.32630758 160.73106292 14.156744 160.74475574 C11.19622035 160.76239633 8.23674012 160.75540685 5.27621651 160.74222279 C4.4163856 160.75319203 3.55655469 160.76416128 2.6706683 160.77546293 C-2.70819002 160.71757646 -5.71910353 159.79485392 -10.0049572 156.25447559 C-15.43054418 150.67881648 -14.58245233 144.05402839 -14.55427361 136.74104786 C-14.56297558 135.36236438 -14.57334446 133.98369056 -14.58524895 132.60503101 C-14.61196863 128.87145474 -14.61319336 125.13828411 -14.60812235 121.4046309 C-14.6059789 118.2833844 -14.6157598 115.16221931 -14.62533319 112.04099029 C-14.64750235 104.67548497 -14.64841019 97.31018366 -14.63630486 89.94466114 C-14.62422333 82.35540852 -14.64885564 74.76689729 -14.69144499 67.17777115 C-14.72671148 60.65270605 -14.73867447 54.12787659 -14.73216951 47.60271972 C-14.72854903 43.70954779 -14.73376221 39.81690486 -14.76159859 35.92381954 C-14.78680425 32.26184708 -14.78282504 28.60102795 -14.75677681 24.93907261 C-14.74981264 22.96162104 -14.77236696 20.98413385 -14.79591179 19.00681019 C-14.71894849 12.49283138 -14.40850808 8.2245363 -9.68190384 3.50140762 C-6.53688136 1.16285423 -3.93598304 0.00500412 0 0 Z M26.9950428 22.25447559 C25.49556113 25.15702622 25.49556113 25.15702622 24.5575428 28.25447559 C22.72099039 33.03068538 21.2352718 35.81602347 16.8231678 38.45369434 C14.9950428 39.25447559 14.9950428 39.25447559 11.3700428 40.19197559 C6.85693172 41.61276982 5.69746997 43.4392843 2.9950428 47.25447559 C1.65852375 49.9275137 1.85317077 51.99265983 1.83390999 54.98592091 C1.82430244 56.18766956 1.8146949 57.38941822 1.80479622 58.6275835 C1.80054634 59.93273914 1.79629646 61.23789478 1.7919178 62.58260059 C1.78616474 63.93300345 1.78040702 65.28340628 1.77464485 66.63380909 C1.7641331 69.46846872 1.75829217 72.30309999 1.75480843 75.13777637 C1.74933546 78.76037454 1.72533439 82.3825946 1.69683647 86.0050745 C1.67815639 88.79672282 1.67300157 91.58828124 1.67147255 94.37998676 C1.66699285 96.361896 1.64836839 98.34375703 1.62950325 100.32558155 C1.63250435 101.53993885 1.63550545 102.75429615 1.63859749 104.00545216 C1.63495186 105.06975452 1.63130623 106.13405689 1.62755013 107.23061085 C2.18701169 111.83406612 3.90488296 115.13225223 7.1200428 118.44197559 C9.72732426 120.08569652 11.58589727 120.79345869 14.4950428 121.62947559 C19.20165753 123.09931541 21.31647468 125.00027917 23.9950428 129.25447559 C24.75733143 131.4939453 25.40627729 133.70095234 25.92863655 136.00838184 C27.58986464 139.50730547 29.55858428 141.56750096 32.9950428 143.25447559 C37.83383449 144.0072303 42.66578049 143.9178884 47.54997444 143.86970997 C49.04027119 143.87321338 50.53056419 143.87887444 52.02084541 143.88652515 C56.05813659 143.90075025 60.09474482 143.88373523 64.13197064 143.86023998 C68.36036797 143.84010641 72.58873762 143.84601178 76.8171711 143.84834766 C83.91637093 143.84829412 91.01530431 143.8285556 98.11442757 143.79646778 C106.31927525 143.75956215 114.52377416 143.75079451 122.72869402 143.75776529 C130.6267181 143.76407229 138.52462272 143.75331329 146.42262268 143.73379993 C149.78176705 143.72563029 153.14085034 143.72291558 156.50000381 143.72449207 C160.45555708 143.72537158 164.41077934 143.71113738 168.36624527 143.68526554 C169.81704796 143.67810913 171.26788588 143.6760176 172.71870232 143.67938328 C174.70036985 143.68310331 176.68204438 143.66649476 178.66363716 143.64888477 C180.32638475 143.6432917 180.32638475 143.6432917 182.0227232 143.63758564 C185.39660309 143.20271744 187.26522803 142.25076435 189.9950428 140.25447559 C192.78460738 136.53505616 193.78236455 132.70096252 194.9950428 128.25447559 C195.94787934 125.73626474 196.37772258 124.60862982 198.71769905 123.26619434 C202.19693774 121.72052913 205.81621196 120.61887416 209.43644905 119.44978809 C212.32106602 118.10216551 213.38238648 116.96456258 214.9950428 114.25447559 C216.08328623 110.9897453 216.14170732 108.55504966 216.17204475 105.11824512 C216.18487999 103.85328205 216.19771523 102.58831898 216.21093941 101.28502369 C216.21910641 99.90244914 216.22655022 98.51987017 216.23332405 97.13728809 C216.23739958 96.44019608 216.24147511 95.74310406 216.24567413 95.02488804 C216.26651309 91.33628354 216.28082504 87.64771602 216.29020882 83.95906544 C216.30127837 80.15357596 216.33568983 76.34867039 216.37538052 72.54338741 C216.40154617 69.61281224 216.40990046 66.68237638 216.4134903 63.75169468 C216.41835522 62.34907931 216.42996675 60.94647013 216.44852829 59.54396915 C216.4729172 57.57928817 216.46953516 55.61432228 216.4650135 53.64949512 C216.47087975 52.53269367 216.47674599 51.41589222 216.48278999 50.2652483 C215.88032884 46.54636767 214.59407453 44.93441754 211.9950428 42.25447559 C209.2732766 40.43996479 207.68238643 39.819707 204.6200428 39.00447559 C200.09347629 37.51518386 197.31976003 35.45819359 194.9950428 31.25447559 C193.99783151 28.7295366 193.08402357 26.21490601 192.28019905 23.62166309 C190.46852294 20.28465481 188.2779445 19.11600858 184.9950428 17.25447559 C181.87036815 16.65937037 181.87036815 16.65937037 178.54338264 16.7398119 C177.2648542 16.72708744 175.98632576 16.71436298 174.66905403 16.70125294 C173.26469426 16.70743446 171.8603363 16.71404041 170.4559803 16.72102833 C168.96730381 16.71396599 167.4786345 16.70521965 165.98997688 16.69492054 C161.95688202 16.67245323 157.92418007 16.67535969 153.89104652 16.68424201 C150.5211789 16.68935807 147.15138471 16.68205444 143.78152466 16.67476994 C135.83114748 16.65777982 127.88096229 16.66132828 119.93058968 16.67805958 C111.7336098 16.69498693 103.53716223 16.67913619 95.34024048 16.6468367 C88.29630726 16.62013396 81.25253968 16.61286641 74.20856094 16.62135178 C70.00419103 16.62627821 65.80014148 16.62408076 61.59581184 16.60356426 C57.6425884 16.5851957 53.69013043 16.5911793 49.73694801 16.61576366 C48.28816547 16.62076762 46.83932448 16.61729239 45.39058876 16.60461521 C34.91644251 16.30379999 34.91644251 16.30379999 26.9950428 22.25447559 Z " fill="#FCFDFD" transform="translate(131.00495719909668,190.7455244064331)"/>
<path d="M0 0 C1.48867647 -0.00514175 2.97734685 -0.01242496 4.46600342 -0.02168274 C8.49921023 -0.04017284 12.53175466 -0.02727375 16.56493378 -0.00759244 C20.79020433 0.00881537 25.01543364 -0.0000218 29.24072266 -0.00511169 C36.33571937 -0.00963028 43.43045226 0.0062225 50.52539062 0.03417969 C58.72232103 0.06623064 66.91877564 0.06621516 75.11573982 0.04896492 C83.00843381 0.03308839 90.90095374 0.0398406 98.79364014 0.05690193 C102.14919685 0.0637656 105.50461375 0.06274705 108.86016846 0.05535698 C112.81333372 0.04768269 116.76595903 0.05985699 120.71903229 0.08720589 C122.1678024 0.0940789 123.61662306 0.09419926 125.06539154 0.08699036 C127.04669193 0.07826934 129.02805588 0.09672186 131.00927734 0.11643982 C132.11685394 0.11924674 133.22443054 0.12205366 134.36557007 0.12494564 C138.2337636 0.75747689 140.41707795 2.2022775 143.4609375 4.63110352 C144.9296875 7.47094727 144.9296875 7.47094727 145.9609375 10.56860352 C148.05098413 16.02262996 149.4650741 18.59440223 154.4609375 21.63110352 C156.47754767 22.42107482 158.50799693 23.12595666 160.5625 23.81079102 C163.52735787 25.09190244 165.37371103 27.22763061 167.4609375 29.63110352 C167.7909375 29.96110352 168.1209375 30.29110352 168.4609375 30.63110352 C168.57074176 32.59320444 168.61005391 34.55927982 168.62207031 36.52441406 C168.63167786 37.78630051 168.6412854 39.04818695 168.65118408 40.34831238 C168.65603325 41.73814718 168.66031179 43.12798407 168.6640625 44.51782227 C168.66981345 45.93691511 168.67557119 47.35600792 168.68133545 48.77510071 C168.69185824 51.75697187 168.69769164 54.73881599 168.70117188 57.72070312 C168.70664098 61.53277159 168.73062912 65.34448004 168.75914383 69.15643597 C168.77782049 72.09134441 168.7829786 75.02616731 168.78450775 77.96113014 C168.78752655 79.36568978 168.79552897 80.77024818 168.80869293 82.17474937 C168.82584672 84.14670054 168.82201494 86.11879998 168.81738281 88.09082031 C168.82285126 89.77174019 168.82285126 89.77174019 168.82843018 91.48661804 C168.40535677 95.1066852 167.31743323 97.51275141 165.4609375 100.63110352 C163.59375 102.02172852 163.59375 102.02172852 161.5859375 102.88110352 C160.88339844 103.19176758 160.18085938 103.50243164 159.45703125 103.82250977 C158.79832031 104.0893457 158.13960937 104.35618164 157.4609375 104.63110352 C156.5328125 105.02297852 155.6046875 105.41485352 154.6484375 105.81860352 C152.9313787 106.45636821 151.19861735 107.0518769 149.4609375 107.63110352 C147.80766442 110.30087665 146.99733039 113.06362683 146.1484375 116.06860352 C144.77693614 120.31605925 142.96012685 122.75997379 139.4609375 125.63110352 C136.7278177 126.99766341 134.55104301 126.76965591 131.49029541 126.78500366 C130.21726562 126.79360413 128.94423584 126.80220459 127.63262939 126.81106567 C126.21374552 126.81550106 124.79486122 126.81979941 123.37597656 126.82397461 C121.88789681 126.83187464 120.39981897 126.84014353 118.91174316 126.84875488 C114.01670159 126.87498806 109.12165141 126.89028453 104.2265625 126.90454102 C102.54209131 126.9099003 100.85762018 126.91527781 99.17314911 126.92067337 C92.16628384 126.94230464 85.15942089 126.96104138 78.15253067 126.97229576 C68.1080194 126.98853464 58.063895 127.02170782 48.01952958 127.07869661 C40.95873197 127.11739247 33.89803785 127.13692806 26.83713698 127.14221632 C22.61923811 127.14587052 18.40175174 127.15789826 14.18396759 127.19031906 C10.21445961 127.22039354 6.24561383 127.22671413 2.27601624 127.2149353 C0.82075787 127.21471451 -0.63453115 127.22302485 -2.08968353 127.24058914 C-14.4534106 127.38167537 -14.4534106 127.38167537 -18.36920166 124.25088501 C-20.48958735 121.69083734 -21.65186739 119.77578734 -22.6640625 116.63110352 C-24.68568219 111.05929969 -24.68568219 111.05929969 -28.5390625 106.63110352 C-31.29899037 105.56729231 -34.09243267 104.65554736 -36.90234375 103.73266602 C-40.8154629 102.09785179 -42.27829505 100.17297251 -44.5390625 96.63110352 C-45.60022254 93.4476234 -45.6849572 91.13220671 -45.71606445 87.78613281 C-45.72889969 86.58445969 -45.74173492 85.38278656 -45.75495911 84.1446991 C-45.76234604 82.84470474 -45.76973297 81.54471039 -45.77734375 80.20532227 C-45.78141928 79.54257608 -45.7854948 78.8798299 -45.78969383 78.1970005 C-45.81053342 74.68879129 -45.82484398 71.18062095 -45.83422852 67.67236328 C-45.84528647 64.05752819 -45.87968418 60.44330976 -45.91940022 56.82869244 C-45.94560325 54.04133496 -45.95392356 51.25412362 -45.95750999 48.46665382 C-45.96472048 46.48912909 -45.99114289 44.51170441 -46.01789856 42.53434753 C-45.99105512 31.42167051 -45.99105512 31.42167051 -41.5390625 26.63110352 C-39.06559892 24.24293179 -37.47168983 23.61272915 -34.1015625 22.69360352 C-30.23712752 21.54105273 -28.44477731 20.38732817 -25.5390625 17.63110352 C-24.11292404 14.67724979 -23.10526476 11.70440974 -22.04296875 8.60375977 C-17.18052678 -1.00745669 -9.70123001 -0.08489073 0 0 Z M-8.5390625 13.63110352 C-10.5190625 17.59110352 -12.4990625 21.55110352 -14.5390625 25.63110352 C-19.32267427 31.37143763 -24.4779122 34.27738675 -31.5390625 36.63110352 C-31.5390625 54.45110352 -31.5390625 72.27110352 -31.5390625 90.63110352 C-28.2390625 91.95110352 -24.9390625 93.27110352 -21.5390625 94.63110352 C-14.74698759 99.24458836 -11.5260424 105.16365378 -8.5390625 112.63110352 C37.9909375 112.63110352 84.5209375 112.63110352 132.4609375 112.63110352 C133.4509375 109.99110352 134.4409375 107.35110352 135.4609375 104.63110352 C140.42549465 97.27783483 146.11661197 93.41254536 154.4609375 90.63110352 C154.4609375 72.81110352 154.4609375 54.99110352 154.4609375 36.63110352 C150.5009375 34.65110352 146.5409375 32.67110352 142.4609375 30.63110352 C136.86479584 25.34020594 135.10405527 20.91733905 131.4609375 13.63110352 C85.2609375 13.63110352 39.0609375 13.63110352 -8.5390625 13.63110352 Z " fill="#1B9D61" transform="translate(178.5390625,207.368896484375)"/>
<path d="M0 0 C0.91646331 -0.00467997 1.83292662 -0.00935994 2.77716154 -0.01418173 C5.83713971 -0.02611373 8.89666856 -0.01668144 11.95664978 -0.00723267 C14.15481833 -0.01129913 16.35298483 -0.01664143 18.55114746 -0.02316284 C24.5138066 -0.03683247 30.47630991 -0.03153937 36.43897176 -0.02202559 C42.67952344 -0.01442818 48.92006181 -0.02147474 55.16061401 -0.02618408 C66.31027514 -0.03199045 77.45987907 -0.0226709 88.60952651 -0.00740607 C98.71420164 0.00599985 108.81877338 0.0036655 118.92344666 -0.01016235 C130.66613289 -0.02622431 142.40876878 -0.03218925 154.15146631 -0.02332556 C160.36446168 -0.01864783 166.57738586 -0.0180271 172.79037666 -0.02793503 C178.63038032 -0.03659778 184.47018859 -0.03059522 190.31017113 -0.01325226 C192.45396729 -0.00928393 194.59777988 -0.01042735 196.74156952 -0.01704025 C199.66672116 -0.02523187 202.59124578 -0.01496272 205.51635742 0 C206.36567795 -0.00669217 207.21499848 -0.01338433 208.090056 -0.02027929 C213.0312196 0.02878205 216.41002774 0.65380189 220.69468689 3.38095093 C224.61040167 7.71998623 225.81772229 10.11965163 225.84185791 15.89602661 C225.85259087 17.65411652 225.85259087 17.65411652 225.86354065 19.44772339 C225.86622955 20.74020996 225.86891846 22.03269653 225.87168884 23.36434937 C225.87795282 24.73420383 225.88459956 26.10405658 225.89160156 27.47390747 C225.90901875 31.20133983 225.91956554 34.92875936 225.92780709 38.65622234 C225.93295637 40.98500224 225.93903217 43.31377815 225.94531822 45.64255524 C225.96437343 52.92864777 225.97860313 60.21473015 225.98693019 67.50084281 C225.99670095 75.91143691 226.02301466 84.32176772 226.06343108 92.73226905 C226.0935959 99.23256394 226.10839945 105.73278338 226.1117112 112.23314691 C226.11406154 116.11564066 226.12301918 119.99785324 226.14817238 123.88027191 C226.17146443 127.53454813 226.17568211 131.18835829 226.165411 134.84268951 C226.16468007 136.81918834 226.18376401 138.79566355 226.20347595 140.77206421 C226.15666862 148.74879406 225.4270507 152.37211572 220.00718689 158.19345093 C217.52231012 159.46946873 215.80983162 159.68538969 213.05015564 159.95516968 C212.23570984 160.03726685 211.42126404 160.11936401 210.58213806 160.20394897 C209.95927917 160.26235962 209.33642029 160.32077026 208.69468689 160.38095093 C208.69414212 159.76141352 208.69359735 159.14187611 208.69303608 158.50356483 C208.67803716 143.39506605 208.63546525 128.28691443 208.56259632 113.1785984 C208.52801431 105.87215495 208.50259976 98.56589884 208.49913025 91.2593689 C208.49608084 84.887377 208.4754602 78.51571932 208.43416232 72.14385641 C208.41291823 68.7731534 208.40018679 65.40292448 208.4085331 62.03215408 C208.41344686 58.25939712 208.38730766 54.48801171 208.35411072 50.71542358 C208.36273636 49.61058624 208.371362 48.5057489 208.38024902 47.36743164 C208.27074039 39.91565033 206.56280461 34.7325878 202.69468689 28.38095093 C202.13781189 27.45282593 201.58093689 26.52470093 201.00718689 25.56845093 C194.39726715 19.31582415 186.30538697 17.23357326 177.47540283 17.22273254 C176.62754422 17.21779457 175.77968561 17.21285659 174.90613431 17.20776898 C172.05481075 17.19236654 169.20350976 17.18402592 166.35215759 17.17562866 C164.31233012 17.1660523 162.27250465 17.15604236 160.23268127 17.14562988 C154.68552791 17.11854858 149.138366 17.09755648 143.59118295 17.0776279 C137.79755862 17.05578823 132.0039607 17.02838967 126.21035767 17.00157166 C115.23506374 16.95161743 104.25975518 16.90668873 93.28443259 16.86354929 C80.79123381 16.81420023 68.29806153 16.75927347 55.80488837 16.7038697 C30.10151258 16.59000775 4.39811139 16.48317789 -21.30531311 16.38095093 C-20.33784165 7.09512196 -20.33784165 7.09512196 -16.30531311 3.38095093 C-10.72145863 0.44431074 -6.24803046 -0.04936059 0 0 Z " fill="#FDFEFE" transform="translate(169.30531311035156,160.61904907226563)"/>
<path d="M0 0 C3.0625 0.3125 3.0625 0.3125 4.875 1.4375 C6.0625 3.3125 6.0625 3.3125 6.1875 6.25 C6.47625 7.260625 6.765 8.27125 7.0625 9.3125 C8.91413354 10.38471524 8.91413354 10.38471524 11.1875 11.1875 C16.63879793 13.28616262 19.94310184 16.389556 23.0625 21.3125 C24.25 25.0625 24.25 25.0625 24.0625 28.3125 C22.13717413 31.2004888 20.94383625 32.11419934 17.5625 32.875 C14.01181936 32.07609686 13.12321087 30.23737994 11.0625 27.3125 C7.64859144 23.69777329 6.35010537 22.37582485 1.25 22.125 C-3.35575502 22.18351231 -6.61294137 22.98794137 -9.9375 26.3125 C-10.60457548 29.72749591 -10.60457548 29.72749591 -9.9375 33.3125 C-6.38082799 36.96529828 -3.6992532 37.47275408 1.3125 37.75 C8.19506689 38.17138165 13.92300342 40.34529286 18.984375 45.12890625 C23.76201056 50.57768585 24.36480907 54.07750015 24.26953125 61.3359375 C23.88551479 66.85707982 21.75459151 69.859102 17.8125 73.5 C15.36910576 75.51281734 13.23538435 76.72786423 10.25 77.75 C6.69886258 79.03585007 6.69886258 79.03585007 5.75 82.875 C5.523125 84.009375 5.29625 85.14375 5.0625 86.3125 C4.0725 87.3025 4.0725 87.3025 3.0625 88.3125 C-0.4375 88.125 -0.4375 88.125 -3.9375 87.3125 C-6.22763653 83.8772952 -6.11592973 82.327169 -5.9375 78.3125 C-7.2059375 78.2196875 -7.2059375 78.2196875 -8.5 78.125 C-14.21437417 76.77432974 -17.70857918 73.82501793 -21.375 69.3125 C-22.98401921 66.22318311 -23.58157255 64.71688346 -22.9375 61.3125 C-21.875 59.5 -21.875 59.5 -19.9375 58.3125 C-16.5625 57.75 -16.5625 57.75 -12.9375 58.3125 C-10.25 61.1875 -10.25 61.1875 -7.9375 64.3125 C-3.76233301 66.94163235 0.2745751 66.84164678 5.0625 66.3125 C8.11899286 65.46413476 8.11899286 65.46413476 10.0625 63.3125 C11.22275399 59.85828685 11.22275399 59.85828685 11.0625 56.3125 C9.31929509 53.65181882 6.94537564 52.54801813 4.0625 51.3125 C2.31831469 51.12291464 0.56574964 51.0026207 -1.1875 50.9375 C-8.89910814 50.31195732 -13.61267927 48.05798093 -18.8125 42.3125 C-23.00652225 37.31868746 -24.5291782 33.50986391 -24.375 26.9765625 C-23.45510702 21.37507134 -20.26302361 17.14751769 -15.86328125 13.67578125 C-12.93096459 11.78413889 -10.25477893 10.41825964 -6.9375 9.3125 C-6.2208793 6.99402126 -5.55507973 4.65930297 -4.9375 2.3125 C-2.9375 0.3125 -2.9375 0.3125 0 0 Z " fill="#1B9D62" transform="translate(239.9375,226.6875)"/>
</svg>
